<svg id="Capa_1" data-name="Capa 1" xmlns="http://www.w3.org/2000/svg" viewBox="0 0 512 512"><defs><style>.cls-1{fill:#ff6465;}.cls-2{fill:#ef525a;}.cls-3{fill:#f9858b;}</style></defs><title>board</title><path class="cls-1" d="M499,512H13A13,13,0,0,1,0,499V13A13,13,0,0,1,13,0H499a13,13,0,0,1,13,13V499A13,13,0,0,1,499,512Z"/><path class="cls-2" d="M20.6,498.63V13.37A13.38,13.38,0,0,1,34,0H13.37A13.38,13.38,0,0,0,0,13.37V498.63A13.38,13.38,0,0,0,13.37,512H34A13.38,13.38,0,0,1,20.6,498.63Z"/><rect class="cls-3" x="170.67" width="170.67" height="170.67"/><rect class="cls-3" x="170.67" y="341.33" width="170.67" height="170.67"/><rect class="cls-3" x="341.33" y="170.67" width="170.67" height="170.67"/><rect class="cls-3" y="170.67" width="170.67" height="170.67"/><rect class="cls-1" y="170.67" width="20.6" height="170.67"/><rect class="cls-1" x="170.67" y="170.67" width="170.67" height="170.67"/></svg>