<svg id="Layer_1" data-name="Layer 1" xmlns="http://www.w3.org/2000/svg" viewBox="0 0 973.45 982"><defs><style>.cls-1{fill:#f9f9f9;stroke:#fff;stroke-miterlimit:10;stroke-width:12px;}</style></defs><title>board</title><path class="cls-1" d="M980,582.93a28.54,28.54,0,0,0-.12-4.44,23.36,23.36,0,0,0-1.34-3.93,24.59,24.59,0,0,0-2.12-4.9c-.25-.36-.59-.65-.86-1a19.8,19.8,0,0,0-16.36-8.39c-.47,0-.76-.31-1.24-.34-86.11-6-175.85-8.16-266.72-7-.25-94.86-1.68-189.84-5.09-284.37,71-4.62,142.17-4.4,209.12,12,18.9,4.63,34.15-18.72,19.38-32.56-47-44.09-144.47-40.32-230.61-30.52-2.63-61.63-5.82-123.08-10-184-1.86-27.24-41.59-27.32-43.31,0-4,63.45-5.69,127.41-6.22,191.58-21.93,2.93-41.73,5.54-58,6.86-92.7,7.55-185.35,9.42-278.21,13.16-1-47.67-8-92.45-30.77-118.2-5.12-5.81-11-7.2-16.38-5.9-5.78,12-19.56,17.31-33.1,21.19,8,7.23,14.57,16.58,21.35,24.61a5,5,0,0,1,.39,6,3.85,3.85,0,0,1-.85,3.54c-.26.35-.5.71-.75,1.06,2.58,23.17,4.65,46.41,5.91,69.74-62.16,2-144.87,4.77-190.39,34.26-8.39,5.44-9.85,18.68,0,23.78L51.16,309a5.38,5.38,0,0,0,7.11-1.82c8.17-12.1,123.66-14.35,177.5-15,2.53,99.55-3.37,200.11-6.08,300.26-68.93,11.43-136.6,25-201.46,41.75-14.66,3.77-12.06,28.19,3.66,26.43,65.69-7.37,131.27-12.86,196.81-17.52-1.43,109.39,3.28,218,29.47,323.94,6.94,28.09,49.26,16,43.81-11.81-20.25-103.15-23.18-209.37-22.39-315.69,118.34-7.49,236.54-12.13,354.83-17,4.73,101.54,10.14,202.8,14.14,302.91.93,23.15,36,23.18,36.78,0,3.52-100.94,5.48-203,5.95-305.3,88.78-3.79,177.62-8,266.64-14.25.49,0,.77-.29,1.24-.33a19.82,19.82,0,0,0,16.37-8.4c.27-.34.6-.61.85-1a23.65,23.65,0,0,0,2.12-4.92,23.06,23.06,0,0,0,1.34-3.93A26,26,0,0,0,980,582.93Zm-699.8,1.61c1-60.95,2.45-121.77,2-181.87-.22-27.83,3.89-69,5.6-111.83,75-2.95,150.25-1.15,225.22-7,36.23-2.85,73.56-6.8,111.24-10.32.22,93.3,3.41,187,7.37,280.62C514,557.69,395.51,567.67,280.16,584.54Z" transform="translate(-12.55 -7)"/></svg>