<svg id="Layer_1" data-name="Layer 1" xmlns="http://www.w3.org/2000/svg" viewBox="0 0 371.33 119.48"><defs><style>.cls-1,.cls-6{fill:#ff6465;}.cls-2{fill:#ef525a;}.cls-3{fill:#f9858b;}.cls-4{fill:#e1e1e5;}.cls-5{fill:#5e6170;}.cls-6{font-size:48px;font-family:LosFelizOT-BoldItalic, Los Feliz OT;font-weight:700;font-style:italic;}.cls-7{letter-spacing:0.02em;}.cls-8{letter-spacing:0em;}.cls-9{letter-spacing:-0.01em;}</style></defs><title>logo</title><path class="cls-1" d="M164,160H53a3,3,0,0,1-3-3V46a3,3,0,0,1,3-3H164a3,3,0,0,1,3,3V157A3,3,0,0,1,164,160Z" transform="translate(-50 -40.52)"/><path class="cls-2" d="M54.71,156.94V46.06a3.06,3.06,0,0,1,3-3.06h-4.7A3.06,3.06,0,0,0,50,46.06V156.94A3.06,3.06,0,0,0,53.06,160h4.7A3.06,3.06,0,0,1,54.71,156.94Z" transform="translate(-50 -40.52)"/><rect class="cls-3" x="39" y="2.48" width="39" height="39"/><rect class="cls-3" x="39" y="80.48" width="39" height="39"/><rect class="cls-3" x="78" y="41.48" width="39" height="39"/><rect class="cls-3" y="41.48" width="39" height="39"/><rect class="cls-1" y="41.48" width="4.71" height="39"/><rect class="cls-1" x="39" y="41.48" width="39" height="39"/><path class="cls-4" d="M108.5,50.17a12.76,12.76,0,1,0,12.76,12.76A12.77,12.77,0,0,0,108.5,50.17Zm0,22a9.23,9.23,0,1,1,9.23-9.23A9.24,9.24,0,0,1,108.5,72.16Z" transform="translate(-50 -40.52)"/><path class="cls-4" d="M108.5,88.5a12.77,12.77,0,1,0,12.76,12.76A12.78,12.78,0,0,0,108.5,88.5Zm0,22a9.24,9.24,0,1,1,9.23-9.24A9.25,9.25,0,0,1,108.5,110.5Z" transform="translate(-50 -40.52)"/><path class="cls-4" d="M108.5,128a12.76,12.76,0,1,0,12.76,12.76A12.77,12.77,0,0,0,108.5,128Zm0,22a9.23,9.23,0,1,1,9.23-9.23A9.24,9.24,0,0,1,108.5,150Z" transform="translate(-50 -40.52)"/><path class="cls-4" d="M69.58,89.09a12.77,12.77,0,1,0,12.76,12.76A12.78,12.78,0,0,0,69.58,89.09Zm0,22a9.23,9.23,0,1,1,9.23-9.23A9.24,9.24,0,0,1,69.58,111.08Z" transform="translate(-50 -40.52)"/><path class="cls-4" d="M147.42,114.62a12.77,12.77,0,1,0-12.76-12.77A12.79,12.79,0,0,0,147.42,114.62Zm0-22a9.23,9.23,0,1,1-9.23,9.23A9.24,9.24,0,0,1,147.42,92.62Z" transform="translate(-50 -40.52)"/><path class="cls-5" d="M60,72.51a1.76,1.76,0,0,0,2.5,0l7.09-7.08,7.08,7.08a1.77,1.77,0,0,0,2.5-2.5l-7.09-7.08,7.09-7.09a1.76,1.76,0,1,0-2.5-2.49l-7.08,7.08-7.09-7.08A1.76,1.76,0,1,0,60,55.84l7.09,7.09L60,70A1.77,1.77,0,0,0,60,72.51Z" transform="translate(-50 -40.52)"/><path class="cls-5" d="M137.84,72.51a1.76,1.76,0,0,0,2.5,0l7.08-7.08,7.09,7.08a1.76,1.76,0,0,0,2.5,0,1.77,1.77,0,0,0,0-2.5l-7.09-7.08L157,55.84a1.76,1.76,0,1,0-2.5-2.49l-7.09,7.08-7.08-7.08a1.76,1.76,0,1,0-2.5,2.49l7.09,7.09L137.84,70A1.77,1.77,0,0,0,137.84,72.51Z" transform="translate(-50 -40.52)"/><path class="cls-5" d="M79.16,131.2a1.77,1.77,0,0,0-2.5,0l-7.08,7.08-7.09-7.08a1.76,1.76,0,0,0-2.5,2.49l7.09,7.09L60,147.86a1.77,1.77,0,0,0,0,2.5,1.76,1.76,0,0,0,2.5,0l7.09-7.09,7.08,7.09a1.76,1.76,0,0,0,2.5,0,1.77,1.77,0,0,0,0-2.5l-7.09-7.08,7.09-7.09A1.76,1.76,0,0,0,79.16,131.2Z" transform="translate(-50 -40.52)"/><path class="cls-5" d="M157,131.2a1.77,1.77,0,0,0-2.5,0l-7.09,7.08-7.08-7.08a1.76,1.76,0,0,0-2.5,2.49l7.09,7.09-7.09,7.08a1.77,1.77,0,0,0,0,2.5,1.76,1.76,0,0,0,2.5,0l7.08-7.09,7.09,7.09a1.77,1.77,0,0,0,2.5-2.5l-7.09-7.08,7.09-7.09A1.76,1.76,0,0,0,157,131.2Z" transform="translate(-50 -40.52)"/><text class="cls-6" transform="translate(122.79 41.06)"><tspan class="cls-7">T</tspan><tspan class="cls-8" x="30.72" y="0">ic </tspan><tspan class="cls-9" x="77.95" y="0">T</tspan><tspan x="107.47" y="0">ac Toe</tspan></text></svg>